<svg id="Layer_1" data-name="Layer 1" xmlns="http://www.w3.org/2000/svg" style="display: block;" xmlns:xlink="http://www.w3.org/1999/xlink" width="888.14px" height="321.66px" viewBox="0 0 888.14 321.66">
    <defs>
        <style>
            .cls-1 {
                fill: url(#linear-gradient);
            }
            
            .cls-2 {
                fill: url(#linear-gradient-2);
            }
            
            .cls-3 {
                fill: #231f20;
            }
        </style>
        <linearGradient id="linear-gradient" x1="534.35" y1="-94.36" x2="534.35" y2="63.72" gradientTransform="matrix(0.5, 0.87, -0.79, 0.46, 396.4, -378.15)" gradientUnits="userSpaceOnUse">
            <stop offset="0" stop-color="#f8ac32" />
            <stop offset="0.48" stop-color="#f2672d" />
            <stop offset="1" stop-color="#ec2227" />
        </linearGradient>
        <linearGradient id="linear-gradient-2" x1="577.85" y1="-55.6" x2="577.85" y2="102.49" xlink:href="#linear-gradient" />
    </defs>
    <title>wander-logo</title>
    <path class="cls-1" d="M736.08,36.95s-10.64,20.28-50,14.2c-35.39-5.48-70.7,12.91-68.68,69.21,0,0,19.9-26.9,64.77-20.85C717.83,104.32,744.9,72.28,736.08,36.95Z" />
    <path class="cls-2" d="M727.2,92.34s-10.64,20.28-50,14.2c-35.39-5.48-70.7,12.91-68.68,69.21,0,0,19.9-26.9,64.77-20.85C708.95,159.71,736,127.67,727.2,92.34Z" />
    <path class="cls-3" d="M48.69,47.38,67.6,106.83q2.89,9.2,5.54,18.31t4.34,15.41H78q3.23-12.43,10-33.38l19.59-59.78h17.71L144.92,107q6.64,20.27,10.39,33.55h.34q5.28-19.24,9.88-33.72L184.1,47.38h20.78L165.36,166.61h-20.1L129.08,116,116.65,77h-.34q-4.6,12.61-12.94,39.17l-16,50.42H67.94L27.57,47.38Z" />
    <path class="cls-3" d="M308.26,166.61,297,141.74H234.51l-11.24,24.87H201.81L255,47.38h22l53.14,119.22ZM242,124h47.52L273.69,85.88q-.68-1.36-1.7-4.09Q266.53,69,266,67h-.34l-1.53,3.58L257.68,86Z" />
    <path class="cls-3" d="M371.62,47.38l53.82,73.75,9.37,13.29.34-.17q-.51-5.11-.51-13.11V47.38h19.76V166.61H435.32L381.5,92.86q-7.15-9.88-9.37-13.29l-.51.17a125.65,125.65,0,0,1,.68,13.11v73.75H352.54V47.38Z" />
    <path class="cls-3" d="M568,54.79a52.58,52.58,0,0,1,20.95,20.86q7.49,13.46,7.49,31,0,17.72-7.49,31.34a52.52,52.52,0,0,1-21.12,21.12q-13.63,7.5-31.34,7.49h-45.3V47.38h45.65Q554.54,47.38,568,54.79Zm-10.47,88.31a35.33,35.33,0,0,0,13.88-14.39,44.82,44.82,0,0,0,4.94-21.38,46.22,46.22,0,0,0-4.94-21.72,35.49,35.49,0,0,0-14-14.65,41.27,41.27,0,0,0-20.95-5.19H510.94v82.44h25.89A41,41,0,0,0,557.52,143.11Z" />
    <path class="cls-3" d="M793.46,125.9H776.94v40.71h-20.1V47.38h48.54a47.8,47.8,0,0,1,22,4.85,35.7,35.7,0,0,1,14.82,13.71,39.16,39.16,0,0,1,5.28,20.44q0,14.82-8.26,25t-22.57,13.28l36.45,41.9H828Zm27.85-54.67q-6-5.79-16.95-5.79H776.94V108h27.59q10.73,0,16.78-5.54t6-15.41Q827.35,77,821.31,71.23Z" />
    <path d="M671.68,194.62v80.06H663.9V237.25H616.43v37.43h-7.89V194.62h7.89v35.63H663.9V194.62Z" />
    <path d="M718.13,275.81a28.24,28.24,0,0,1-11.78-2.42,28.85,28.85,0,0,1-9.3-6.65A30.88,30.88,0,0,1,690.9,257a31.72,31.72,0,0,1-2.2-11.84,31,31,0,0,1,2.2-11.67,30.23,30.23,0,0,1,6.09-9.58,28.93,28.93,0,0,1,9.3-6.54,29.71,29.71,0,0,1,23.51,0,28.06,28.06,0,0,1,9.19,6.6A31,31,0,0,1,747.11,245v1.8a4.57,4.57,0,0,1-.11,1.24H696.71a24.72,24.72,0,0,0,2.2,8.74,24,24,0,0,0,4.79,6.93,21.39,21.39,0,0,0,6.71,4.57,20.06,20.06,0,0,0,8.06,1.64,20.79,20.79,0,0,0,5.64-.79A22.77,22.77,0,0,0,729.3,267a19.32,19.32,0,0,0,4.28-3.33,14.26,14.26,0,0,0,2.93-4.34l6.65,1.8a19.53,19.53,0,0,1-3.83,5.92,26.72,26.72,0,0,1-5.75,4.62,28.15,28.15,0,0,1-7.22,3A31.34,31.34,0,0,1,718.13,275.81Zm21.65-33.6a23.72,23.72,0,0,0-2.2-8.62,23.48,23.48,0,0,0-4.74-6.71,21,21,0,0,0-6.65-4.4,20.71,20.71,0,0,0-8.06-1.58,21.12,21.12,0,0,0-8.12,1.58,20.79,20.79,0,0,0-6.71,4.4,21.62,21.62,0,0,0-4.62,6.76,25.61,25.61,0,0,0-2.09,8.57Z" />
    <path d="M777.1,275.81a20.75,20.75,0,0,1-7.72-1.41,19.44,19.44,0,0,1-6.2-3.89,17.52,17.52,0,0,1-5.58-13,14.46,14.46,0,0,1,1.8-7.1,17.17,17.17,0,0,1,5.07-5.64,24.85,24.85,0,0,1,7.78-3.67,35.87,35.87,0,0,1,9.92-1.3,54.3,54.3,0,0,1,9.13.79,39.75,39.75,0,0,1,8.23,2.25v-5.3q0-7.78-4.4-12.35T783,220.67a25.89,25.89,0,0,0-9.25,1.8,44.59,44.59,0,0,0-9.58,5.19l-2.71-5.07q11.39-7.67,22.1-7.67,11,0,17.36,6.2t6.31,17.14v26.5q0,3.16,2.82,3.16v6.77a18.26,18.26,0,0,1-2.93.34,6.59,6.59,0,0,1-4.57-1.47,5.5,5.5,0,0,1-1.75-4.06l-.23-4.62a26.63,26.63,0,0,1-10.2,8.12A31.42,31.42,0,0,1,777.1,275.81Zm1.8-5.86a26.49,26.49,0,0,0,11-2.26,18,18,0,0,0,7.61-6,7,7,0,0,0,1.52-2.2,5.63,5.63,0,0,0,.51-2.2v-9.58a47.11,47.11,0,0,0-7.95-2.25,44.59,44.59,0,0,0-8.4-.79q-8.12,0-13.19,3.38T764.93,257a12.15,12.15,0,0,0,1.07,5.07,12.85,12.85,0,0,0,2.93,4.12,13.68,13.68,0,0,0,4.45,2.76A15,15,0,0,0,778.91,269.94Z" />
    <path d="M854.9,271.86q-.68.34-2,.9t-3,1.13a34.57,34.57,0,0,1-3.83,1,21.92,21.92,0,0,1-4.51.45,16.38,16.38,0,0,1-4.74-.68,11,11,0,0,1-3.95-2.09,10.26,10.26,0,0,1-2.71-3.55,11.46,11.46,0,0,1-1-5V222h-8.12v-6.09h8.12V196.09h7.67v19.84h13.53V222H836.86v39.92a6.08,6.08,0,0,0,2.31,4.79,7.92,7.92,0,0,0,4.79,1.52,14.39,14.39,0,0,0,5.75-1.07,25.15,25.15,0,0,0,3.16-1.52Z" />
</svg>